<svg version="1.1" id="Layer_1" xmlns="http://www.w3.org/2000/svg" xmlns:xlink="http://www.w3.org/1999/xlink" x="0px" y="0px"
	 width="100%" viewBox="0 0 600 200" enable-background="new 0 0 600 200" xml:space="preserve">
<path fill="#4CBE44" opacity="1.000000" stroke="none" 
	d="
M379.000000,201.000000 
	C252.705978,201.000000 126.911964,201.000000 1.058975,201.000000 
	C1.058975,134.393524 1.058975,67.786980 1.058975,1.090219 
	C200.877319,1.090219 400.754700,1.090219 600.816040,1.090219 
	C600.816040,67.666267 600.816040,134.333084 600.816040,201.000000 
	C527.120361,201.000000 453.310181,201.000000 379.000000,201.000000 
M143.089188,63.179634 
	C141.488800,61.682205 139.888397,60.184776 137.976501,58.097038 
	C129.864090,45.050663 105.674477,43.592308 94.946632,50.530323 
	C80.573395,59.825932 79.579262,79.865417 92.466339,91.133224 
	C99.930626,97.659622 108.297745,101.271606 117.701050,103.351974 
	C119.228340,103.689865 121.752556,105.229973 121.676567,106.004494 
	C121.472626,108.083282 120.606209,110.606766 119.104088,111.944115 
	C115.812637,114.874496 109.821472,114.569145 105.580994,111.580109 
	C103.012512,109.769615 100.846184,107.399788 98.376190,105.435959 
	C93.646271,101.675346 90.395966,101.907303 86.116295,106.128227 
	C81.077995,111.097366 80.440865,114.248169 84.471901,119.098541 
	C87.527847,122.775612 91.317223,125.843140 95.011360,129.791275 
	C96.651932,131.223236 98.292496,132.655197 100.183968,134.706665 
	C109.811928,143.845383 126.649353,145.340790 139.512787,138.152115 
	C144.380356,135.431885 148.560226,132.040924 150.664612,126.856529 
	C152.391159,128.280548 154.117706,129.704559 156.046768,131.767288 
	C157.657715,133.232788 159.268661,134.698273 161.069702,136.830978 
	C164.298264,141.429916 168.864975,142.725510 175.095612,140.989929 
	C180.270187,139.548538 180.762207,135.483978 180.802612,131.154602 
	C180.852280,125.830605 180.702927,120.502075 180.874435,115.183075 
	C180.951828,112.782516 181.597076,110.400261 182.324921,108.603249 
	C187.983139,115.009895 193.641357,121.416534 199.521088,128.446487 
	C201.967453,130.364166 204.413803,132.281830 207.125443,134.808838 
	C209.153458,136.203827 211.046295,137.873474 213.231522,138.949066 
	C226.978409,145.715393 252.100861,144.063538 262.926025,128.982483 
	C264.207428,129.718552 265.488831,130.454620 266.971283,131.837555 
	C268.599426,133.289490 270.227570,134.741425 272.047241,136.874771 
	C274.284271,141.983765 278.899628,141.568970 283.145996,141.311508 
	C289.204346,140.944199 290.993103,138.865280 291.100006,132.817780 
	C291.191040,127.669884 291.036469,122.516975 291.163391,117.370552 
	C291.322144,110.934113 291.657654,104.502037 292.423157,98.507950 
	C299.501007,107.889450 306.525116,117.312447 313.703979,126.615990 
	C315.071533,128.388275 317.050812,129.688492 319.022583,131.806442 
	C320.630066,133.290619 322.237549,134.774796 324.107849,136.890076 
	C327.605560,142.546463 332.992523,141.791840 338.335297,141.020309 
	C341.985413,140.493195 344.028351,138.248734 344.036774,134.588852 
	C344.090302,111.320831 344.079346,88.052589 344.038788,64.784515 
	C344.033295,61.647358 342.788269,59.278465 338.881714,58.295879 
	C337.275940,56.836143 335.670166,55.376408 333.913269,53.206543 
	C331.694580,48.424160 327.486450,46.892090 320.447662,48.085155 
	C315.363373,48.946934 314.237244,52.542431 314.199158,56.842243 
	C314.122589,65.486542 314.166595,74.131920 314.161987,82.776848 
	C314.160248,86.001694 314.161713,89.226540 314.161713,92.451385 
	C311.748077,91.248734 310.550293,89.756638 309.376526,88.245903 
	C299.899689,76.048515 290.491394,63.797054 280.915863,51.677708 
	C277.924530,47.891697 270.777313,46.620724 265.732422,48.544243 
	C260.915039,50.381012 261.200470,54.623878 261.165253,58.601559 
	C261.063660,70.070129 261.056488,81.539543 260.356720,92.824089 
	C259.274200,92.520454 258.191650,92.216827 256.748138,91.346474 
	C255.180557,89.878044 253.612961,88.409615 251.784271,86.311684 
	C251.039566,84.903404 250.294876,83.495132 250.318680,82.020348 
	C255.584396,80.230408 258.580597,76.060799 259.011688,71.040169 
	C259.204071,68.799538 255.960587,66.263885 253.937012,63.296738 
	C252.347366,61.802795 250.757721,60.308853 248.934845,58.180202 
	C247.248032,56.610043 245.740768,54.769733 243.846939,53.511047 
	C222.329346,39.209915 195.705490,46.327145 181.412918,69.443413 
	C179.782104,65.880112 181.864227,60.350410 175.531998,58.517666 
	C173.811264,56.883278 172.090530,55.248890 170.131149,52.939072 
	C167.564529,48.205547 162.816330,46.615196 155.970367,48.108856 
	C150.958450,49.202370 150.161026,52.916786 150.149353,57.188099 
	C150.109436,71.794983 150.058945,86.401840 149.448074,100.760567 
	C148.438370,100.087814 147.428650,99.415070 146.043503,98.189705 
	C144.330444,96.505333 142.617371,94.820969 140.557526,92.562241 
	C136.598846,89.526535 132.969971,85.830215 128.587952,83.642448 
	C124.277328,81.490326 119.202614,80.868637 114.805122,78.833412 
	C117.468040,74.331848 122.104416,75.413315 126.695686,75.091316 
	C127.418159,75.458969 128.140625,75.826622 129.113068,76.816132 
	C130.661087,78.018639 132.064117,79.513184 133.785019,80.367424 
	C138.451355,82.683731 142.647278,80.590263 146.192856,74.462311 
	C149.042297,69.537537 148.458588,67.268196 143.089188,63.179634 
M394.332947,55.667374 
	C393.607239,55.054352 392.881500,54.441326 392.031525,53.096367 
	C389.960754,48.021446 386.690674,46.825394 378.783447,47.876690 
	C373.951202,48.519157 372.376434,51.650867 372.334595,55.878426 
	C372.227631,66.688515 372.515320,77.506920 372.208740,88.309616 
	C371.724609,105.369865 377.861053,119.100761 391.949249,129.845581 
	C393.601135,131.272919 395.253021,132.700256 397.163086,134.743805 
	C411.643616,148.483704 437.693542,144.579971 448.912323,126.853134 
	C451.297150,123.084854 453.048523,118.915657 455.215057,115.833885 
	C455.240234,117.982498 455.263519,120.131142 455.290924,122.279724 
	C455.343109,126.371796 456.371246,129.842163 461.097504,131.716827 
	C462.714966,133.165329 464.332397,134.613815 466.146820,136.747299 
	C469.039917,140.843033 475.292816,142.577728 480.789703,140.648315 
	C485.196838,139.101425 485.847382,135.364975 485.857025,131.345734 
	C485.864197,128.357864 485.955231,125.367676 485.866119,122.382782 
	C485.778351,119.442551 487.087555,118.118736 490.015900,118.158157 
	C493.666779,118.207306 497.320587,118.194481 500.970886,118.111023 
	C523.630493,117.592941 537.645996,92.766937 526.364929,73.041695 
	C525.518372,71.561501 523.954773,70.491394 522.312866,68.721581 
	C520.525513,66.837418 518.738220,64.953262 516.574768,62.517208 
	C510.815094,54.998760 503.654938,49.040771 494.072418,48.254631 
	C483.512939,47.388332 472.831116,47.898788 462.204956,48.017147 
	C458.131226,48.062523 455.845825,50.530575 455.429688,54.594925 
	C455.244019,56.408562 455.188019,58.235470 454.448242,59.827240 
	C453.407990,59.477802 452.367767,59.128368 450.932190,58.260063 
	C449.677094,57.454449 448.421967,56.648838 447.079895,55.127228 
	C446.762604,54.563911 446.441162,54.002869 446.128632,53.436913 
	C443.203918,48.140026 438.144958,46.309967 431.297211,48.082283 
	C425.952209,49.465664 425.927155,53.717007 425.932617,58.007935 
	C425.945312,67.996361 426.093994,77.988556 425.860535,87.971573 
	C425.756653,92.412285 425.526367,97.045952 424.194916,101.222725 
	C421.077148,111.003067 413.409088,114.516296 403.802063,110.410172 
	C403.509613,106.281082 403.017731,102.154556 402.964386,98.022385 
	C402.835785,88.061264 403.071655,78.093506 402.821655,68.136925 
	C402.731323,64.539902 403.243134,60.148026 397.681732,58.514355 
	C396.704834,57.896873 395.727905,57.279392 394.677795,56.405846 
	C394.677795,56.405846 394.480682,56.226761 394.332947,55.667374 
z"/>
<path fill="#FDFEFC" opacity="1.000000" stroke="none" 
	d="
M266.770233,131.190704 
	C265.488831,130.454620 264.207428,129.718552 262.564819,128.382904 
	C261.847626,125.338120 261.225800,122.897568 261.183014,120.446892 
	C261.023224,111.302597 261.053345,102.154991 261.012207,93.008621 
	C261.056488,81.539543 261.063660,70.070129 261.165253,58.601559 
	C261.200470,54.623878 260.915039,50.381012 265.732422,48.544243 
	C270.777313,46.620724 277.924530,47.891697 280.915863,51.677708 
	C290.491394,63.797054 299.899689,76.048515 309.376526,88.245903 
	C310.550293,89.756638 311.748077,91.248734 314.161713,92.451385 
	C314.161713,89.226540 314.160248,86.001694 314.161987,82.776848 
	C314.166595,74.131920 314.122589,65.486542 314.199158,56.842243 
	C314.237244,52.542431 315.363373,48.946934 320.447662,48.085155 
	C327.486450,46.892090 331.694580,48.424160 333.965912,54.035141 
	C334.056091,75.142372 334.104858,95.420982 334.127411,115.699631 
	C334.144501,131.077087 334.129639,131.077103 318.747864,131.206512 
	C317.050812,129.688492 315.071533,128.388275 313.703979,126.615990 
	C306.525116,117.312447 299.501007,107.889450 292.058716,97.973824 
	C289.795624,95.240097 287.897003,93.040504 285.928040,90.517059 
	C284.735260,88.692184 283.612793,87.191154 281.587036,84.482132 
	C281.361053,87.624092 281.155579,89.201141 281.149475,90.778976 
	C281.116699,99.241272 281.134491,107.703773 281.133087,116.166199 
	C281.130676,130.792755 281.130127,130.792755 266.770233,131.190704 
z"/>
<path fill="#FDFEFD" opacity="1.000000" stroke="none" 
	d="
M199.299576,127.823181 
	C193.641357,121.416534 187.983139,115.009895 182.122726,107.934357 
	C176.199173,94.828423 176.619537,82.398544 181.964066,69.974419 
	C195.705490,46.327145 222.329346,39.209915 243.846939,53.511047 
	C245.740768,54.769733 247.248032,56.610043 249.020264,58.908508 
	C247.979355,70.558907 240.822998,74.203758 231.283844,69.728279 
	C226.876968,67.660706 221.384811,66.965981 216.450043,67.176987 
	C208.368927,67.522514 200.952927,74.308517 199.033493,82.154808 
	C196.936188,90.728233 197.978973,98.641411 205.359131,105.050682 
	C206.680313,106.241531 207.802521,107.177650 209.148529,108.384918 
	C215.702316,113.471642 222.699066,112.821884 229.703964,110.836838 
	C230.588928,110.586044 230.934784,108.432869 231.637939,106.773407 
	C231.746338,105.314804 231.747223,104.243874 231.786301,102.751495 
	C232.116562,99.323730 230.945953,97.733864 227.732239,97.912018 
	C225.484543,98.036621 223.227371,97.989807 220.629150,97.903709 
	C218.719406,96.119102 216.140823,94.623497 215.819656,92.742447 
	C215.290588,89.643806 216.221924,86.295807 216.697906,83.031158 
	C217.066315,82.868797 217.134277,82.678200 217.444946,82.256271 
	C219.755432,81.720375 221.675949,81.111435 223.611877,81.057800 
	C230.040833,80.879684 236.475342,80.901314 243.283447,80.927979 
	C245.622849,81.368683 247.586517,81.727768 249.550171,82.086853 
	C250.294876,83.495132 251.039566,84.903404 251.854645,87.095856 
	C251.959351,96.003189 251.688385,104.142792 252.124725,112.244293 
	C252.473251,118.715080 249.707809,123.152969 244.539948,126.260399 
	C231.759415,133.945297 218.313995,134.668732 204.426956,129.585602 
	C202.730133,128.964493 201.009293,128.409058 199.299576,127.823181 
z"/>
<path fill="#FDFEFD" opacity="1.000000" stroke="none" 
	d="
M403.795044,111.284546 
	C413.409088,114.516296 421.077148,111.003067 424.194916,101.222725 
	C425.526367,97.045952 425.756653,92.412285 425.860535,87.971573 
	C426.093994,77.988556 425.945312,67.996361 425.932617,58.007935 
	C425.927155,53.717007 425.952209,49.465664 431.297211,48.082283 
	C438.144958,46.309967 443.203918,48.140026 446.128632,53.436913 
	C446.441162,54.002869 446.762604,54.563911 446.947083,55.877541 
	C446.567810,58.754223 446.125397,60.878975 446.107910,63.007229 
	C446.020142,73.671104 446.274109,84.342255 445.980164,94.999046 
	C445.365509,117.281883 427.859192,134.204575 406.699890,132.766006 
	C401.652740,132.422882 396.716248,130.452103 391.728851,129.229950 
	C377.861053,119.100761 371.724609,105.369865 372.208740,88.309616 
	C372.515320,77.506920 372.227631,66.688515 372.334595,55.878426 
	C372.376434,51.650867 373.951202,48.519157 378.783447,47.876690 
	C386.690674,46.825394 389.960754,48.021446 392.144531,53.799583 
	C392.998566,55.077454 393.739624,55.652111 394.480682,56.226765 
	C394.480682,56.226761 394.677795,56.405846 394.386688,56.864136 
	C393.728058,58.234478 393.042694,59.145966 393.041077,60.058659 
	C393.019409,72.366982 392.638611,84.704269 393.415863,96.966621 
	C393.653290,100.712288 397.138306,104.252113 399.321686,108.161606 
	C400.936554,109.386177 402.365814,110.335365 403.795044,111.284546 
z"/>
<path fill="#FDFEFD" opacity="1.000000" stroke="none" 
	d="
M455.073181,60.056355 
	C455.188019,58.235470 455.244019,56.408562 455.429688,54.594925 
	C455.845825,50.530575 458.131226,48.062523 462.204956,48.017147 
	C472.831116,47.898788 483.512939,47.388332 494.072418,48.254631 
	C503.654938,49.040771 510.815094,54.998760 516.789124,63.174210 
	C517.498413,65.241844 518.012268,66.646164 518.485413,68.064072 
	C523.487488,83.053978 517.229614,97.835251 503.172546,105.092659 
	C496.928650,108.316269 490.377838,108.230652 483.721527,108.209129 
	C475.819733,108.183578 475.819641,108.212471 475.798035,116.120346 
	C475.759674,130.164673 474.969940,130.957596 460.905548,131.073029 
	C456.371246,129.842163 455.343109,126.371796 455.290924,122.279724 
	C455.263519,120.131142 455.240234,117.982498 455.275177,114.931717 
	C455.247925,96.038490 455.160553,78.047424 455.073181,60.056355 
M486.868561,88.116577 
	C495.887390,88.147148 499.386444,85.432220 499.912323,77.364708 
	C499.236237,75.943130 498.560150,74.521553 497.806946,72.395721 
	C497.452209,71.847023 497.213928,71.145576 496.725006,70.772888 
	C490.826202,66.276260 484.070496,68.195419 477.590393,68.499481 
	C476.949860,68.529533 475.995361,70.803299 475.912537,72.082657 
	C475.677948,75.706665 475.978546,79.364128 475.771118,82.991417 
	C475.549347,86.869408 477.077881,88.582863 481.815033,88.097488 
	C483.213318,88.057693 484.611603,88.017899 486.868561,88.116577 
z"/>
<path fill="#FBFEFB" opacity="1.000000" stroke="none" 
	d="
M94.780228,129.181915 
	C91.317223,125.843140 87.527847,122.775612 84.471901,119.098541 
	C80.440865,114.248169 81.077995,111.097366 86.116295,106.128227 
	C90.395966,101.907303 93.646271,101.675346 98.376190,105.435959 
	C100.846184,107.399788 103.012512,109.769615 105.580994,111.580109 
	C109.821472,114.569145 115.812637,114.874496 119.104088,111.944115 
	C120.606209,110.606766 121.472626,108.083282 121.676567,106.004494 
	C121.752556,105.229973 119.228340,103.689865 117.701050,103.351974 
	C108.297745,101.271606 99.930626,97.659622 92.466339,91.133224 
	C79.579262,79.865417 80.573395,59.825932 94.946632,50.530323 
	C105.674477,43.592308 129.864090,45.050663 138.012970,58.767677 
	C135.493195,68.244591 131.377609,71.667068 123.486649,71.198380 
	C122.194641,70.598808 121.233147,70.074600 120.167000,69.227112 
	C118.322868,67.754272 116.727295,66.136238 114.815140,65.548935 
	C110.296227,64.160988 105.155754,66.200134 104.182228,69.555962 
	C102.933563,73.860245 104.982857,76.538956 109.253464,78.214706 
	C111.203957,78.779564 112.833572,79.177483 114.463188,79.575401 
	C119.202614,80.868637 124.277328,81.490326 128.587952,83.642448 
	C132.969971,85.830215 136.598846,89.526535 140.733475,93.244186 
	C146.863907,114.901779 137.492447,129.854462 115.734467,132.226761 
	C108.941139,132.967453 101.775459,130.293030 94.780228,129.181915 
z"/>
<path fill="#FDFEFD" opacity="1.000000" stroke="none" 
	d="
M155.844238,131.128586 
	C154.117706,129.704559 152.391159,128.280548 150.485458,126.186043 
	C150.208374,117.346611 150.110428,109.177658 150.012497,101.008713 
	C150.058945,86.401840 150.109436,71.794983 150.149353,57.188099 
	C150.161026,52.916786 150.958450,49.202370 155.970367,48.108856 
	C162.816330,46.615196 167.564529,48.205547 170.172684,53.765141 
	C170.214508,75.253624 170.216202,95.916031 170.214630,116.578445 
	C170.213531,131.099274 170.211548,131.099274 155.844238,131.128586 
z"/>
<path fill="#C1E8BE" opacity="1.000000" stroke="none" 
	d="
M391.839050,129.537766 
	C396.716248,130.452103 401.652740,132.422882 406.699890,132.766006 
	C427.859192,134.204575 445.365509,117.281883 445.980164,94.999046 
	C446.274109,84.342255 446.020142,73.671104 446.107910,63.007229 
	C446.125397,60.878975 446.567810,58.754223 446.990601,56.235542 
	C448.421967,56.648838 449.677094,57.454449 451.069763,59.000477 
	C451.156677,73.364395 451.347504,86.994110 450.997314,100.609909 
	C450.504547,119.769020 436.804291,135.682922 418.252869,137.365356 
	C411.292023,137.996628 404.029724,135.304535 396.904877,134.127609 
	C395.253021,132.700256 393.601135,131.272919 391.839050,129.537766 
z"/>
<path fill="#C0E7BD" opacity="1.000000" stroke="none" 
	d="
M461.001526,131.394928 
	C474.969940,130.957596 475.759674,130.164673 475.798035,116.120346 
	C475.819641,108.212471 475.819733,108.183578 483.721527,108.209129 
	C490.377838,108.230652 496.928650,108.316269 503.172546,105.092659 
	C517.229614,97.835251 523.487488,83.053978 518.485413,68.064072 
	C518.012268,66.646164 517.498413,65.241844 516.977173,63.450161 
	C518.738220,64.953262 520.525513,66.837418 522.534790,69.370834 
	C523.093506,71.307838 523.422729,72.597641 523.768188,73.883049 
	C529.455505,95.042572 515.721191,113.013725 493.728455,113.183563 
	C490.729584,113.206718 487.730286,113.243393 484.731750,113.215096 
	C482.070251,113.189972 480.679688,114.337875 480.786041,117.111618 
	C480.843445,118.608521 480.773560,120.110054 480.771820,121.609505 
	C480.755554,135.412460 479.733643,136.409683 465.949860,136.062317 
	C464.332397,134.613815 462.714966,133.165329 461.001526,131.394928 
z"/>
<path fill="#82D17C" opacity="1.000000" stroke="none" 
	d="
M466.048340,136.404816 
	C479.733643,136.409683 480.755554,135.412460 480.771820,121.609505 
	C480.773560,120.110054 480.843445,118.608521 480.786041,117.111618 
	C480.679688,114.337875 482.070251,113.189972 484.731750,113.215096 
	C487.730286,113.243393 490.729584,113.206718 493.728455,113.183563 
	C515.721191,113.013725 529.455505,95.042572 523.768188,73.883049 
	C523.422729,72.597641 523.093506,71.307838 522.740601,69.625366 
	C523.954773,70.491394 525.518372,71.561501 526.364929,73.041695 
	C537.645996,92.766937 523.630493,117.592941 500.970886,118.111023 
	C497.320587,118.194481 493.666779,118.207306 490.015900,118.158157 
	C487.087555,118.118736 485.778351,119.442551 485.866119,122.382782 
	C485.955231,125.367676 485.864197,128.357864 485.857025,131.345734 
	C485.847382,135.364975 485.196838,139.101425 480.789703,140.648315 
	C475.292816,142.577728 469.039917,140.843033 466.048340,136.404816 
z"/>
<path fill="#82D17C" opacity="1.000000" stroke="none" 
	d="
M397.033997,134.435699 
	C404.029724,135.304535 411.292023,137.996628 418.252869,137.365356 
	C436.804291,135.682922 450.504547,119.769020 450.997314,100.609909 
	C451.347504,86.994110 451.156677,73.364395 451.267395,59.259911 
	C452.367767,59.128368 453.407990,59.477802 454.760712,59.941795 
	C455.160553,78.047424 455.247925,96.038490 455.213501,114.480370 
	C453.048523,118.915657 451.297150,123.084854 448.912323,126.853134 
	C437.693542,144.579971 411.643616,148.483704 397.033997,134.435699 
z"/>
<path fill="#BFE7BC" opacity="1.000000" stroke="none" 
	d="
M155.945496,131.447937 
	C170.211548,131.099274 170.213531,131.099274 170.214630,116.578445 
	C170.216202,95.916031 170.214508,75.253624 170.292007,54.102859 
	C172.090530,55.248890 173.811264,56.883278 175.675446,59.255791 
	C175.804108,81.791466 175.835327,103.589180 175.752502,125.386467 
	C175.718018,134.462204 172.381485,137.345993 163.354401,136.479752 
	C162.526978,136.400360 161.704422,136.270294 160.879608,136.163757 
	C159.268661,134.698273 157.657715,133.232788 155.945496,131.447937 
z"/>
<path fill="#85D27F" opacity="1.000000" stroke="none" 
	d="
M339.276520,58.839420 
	C342.788269,59.278465 344.033295,61.647358 344.038788,64.784515 
	C344.079346,88.052589 344.090302,111.320831 344.036774,134.588852 
	C344.028351,138.248734 341.985413,140.493195 338.335297,141.020309 
	C332.992523,141.791840 327.605560,142.546463 324.441833,136.541229 
	C338.916199,136.120636 339.081970,135.931213 339.109009,121.550163 
	C339.148254,100.646553 339.219147,79.742996 339.276520,58.839420 
z"/>
<path fill="#BFE7BC" opacity="1.000000" stroke="none" 
	d="
M199.410339,128.134842 
	C201.009293,128.409058 202.730133,128.964493 204.426956,129.585602 
	C218.313995,134.668732 231.759415,133.945297 244.539948,126.260399 
	C249.707809,123.152969 252.473251,118.715080 252.124725,112.244293 
	C251.688385,104.142792 251.959351,96.003189 251.985199,87.410614 
	C253.612961,88.409615 255.180557,89.878044 256.893616,92.103546 
	C257.031708,100.498390 256.499451,108.181648 257.156464,115.761833 
	C257.894196,124.273026 253.833984,129.464310 246.925735,132.793411 
	C242.808151,134.777679 238.211685,135.883453 233.730713,136.974274 
	C224.491165,139.223495 215.658615,136.686386 206.860168,134.199509 
	C204.413803,132.281830 201.967453,130.364166 199.410339,128.134842 
z"/>
<path fill="#C4E9C1" opacity="1.000000" stroke="none" 
	d="
M339.079102,58.567650 
	C339.219147,79.742996 339.148254,100.646553 339.109009,121.550163 
	C339.081970,135.931213 338.916199,136.120636 324.310425,136.225677 
	C322.237549,134.774796 320.630066,133.290619 318.885223,131.506470 
	C334.129639,131.077103 334.144501,131.077087 334.127411,115.699631 
	C334.104858,95.420982 334.056091,75.142372 334.041473,54.390209 
	C335.670166,55.376408 337.275940,56.836143 339.079102,58.567650 
z"/>
<path fill="#C0E7BD" opacity="1.000000" stroke="none" 
	d="
M205.160141,104.795959 
	C197.978973,98.641411 196.936188,90.728233 199.033493,82.154808 
	C200.952927,74.308517 208.368927,67.522514 216.450043,67.176987 
	C221.384811,66.965981 226.876968,67.660706 231.283844,69.728279 
	C240.822998,74.203758 247.979355,70.558907 249.136871,59.225861 
	C250.757721,60.308853 252.347366,61.802795 254.077347,63.988739 
	C252.604187,75.955276 245.786667,79.397865 235.883896,74.267090 
	C227.839478,70.099159 219.717636,70.601608 212.257675,75.714081 
	C204.629868,80.941589 202.077225,88.554985 203.434036,97.534058 
	C203.804504,99.985657 204.573853,102.376976 205.160141,104.795959 
z"/>
<path fill="#82D17C" opacity="1.000000" stroke="none" 
	d="
M205.359131,105.050682 
	C204.573853,102.376976 203.804504,99.985657 203.434036,97.534058 
	C202.077225,88.554985 204.629868,80.941589 212.257675,75.714081 
	C219.717636,70.601608 227.839478,70.099159 235.883896,74.267090 
	C245.786667,79.397865 252.604187,75.955276 254.247070,64.271431 
	C255.960587,66.263885 259.204071,68.799538 259.011688,71.040169 
	C258.580597,76.060799 255.584396,80.230408 249.934418,82.053604 
	C247.586517,81.727768 245.622849,81.368683 243.075226,80.665176 
	C238.359650,78.975853 234.248383,76.632492 230.091156,76.547951 
	C225.286728,76.450241 219.706985,76.785263 217.062027,82.437607 
	C217.134277,82.678200 217.066315,82.868797 216.317230,83.048172 
	C213.522751,86.083771 210.034958,88.809219 209.302490,92.140495 
	C208.179962,97.245796 208.955017,102.768326 208.924713,108.113777 
	C207.802521,107.177650 206.680313,106.241531 205.359131,105.050682 
z"/>
<path fill="#81D07B" opacity="1.000000" stroke="none" 
	d="
M206.992798,134.504181 
	C215.658615,136.686386 224.491165,139.223495 233.730713,136.974274 
	C238.211685,135.883453 242.808151,134.777679 246.925735,132.793411 
	C253.833984,129.464310 257.894196,124.273026 257.156464,115.761833 
	C256.499451,108.181648 257.031708,100.498390 257.074097,92.386909 
	C258.191650,92.216827 259.274200,92.520454 260.684448,92.916351 
	C261.053345,102.154991 261.023224,111.302597 261.183014,120.446892 
	C261.225800,122.897568 261.847626,125.338120 262.334167,128.159668 
	C252.100861,144.063538 226.978409,145.715393 213.231522,138.949066 
	C211.046295,137.873474 209.153458,136.203827 206.992798,134.504181 
z"/>
<path fill="#BFE7BC" opacity="1.000000" stroke="none" 
	d="
M94.895798,129.486603 
	C101.775459,130.293030 108.941139,132.967453 115.734467,132.226761 
	C137.492447,129.854462 146.863907,114.901779 140.906860,93.531372 
	C142.617371,94.820969 144.330444,96.505333 146.200073,98.867615 
	C152.307816,120.548271 140.950089,135.901672 119.331909,137.439041 
	C112.977219,137.890930 106.405380,135.289337 99.933067,134.087158 
	C98.292496,132.655197 96.651932,131.223236 94.895798,129.486603 
z"/>
<path fill="#81D07B" opacity="1.000000" stroke="none" 
	d="
M160.974655,136.497375 
	C161.704422,136.270294 162.526978,136.400360 163.354401,136.479752 
	C172.381485,137.345993 175.718018,134.462204 175.752502,125.386467 
	C175.835327,103.589180 175.804108,81.791466 175.869415,59.532753 
	C181.864227,60.350410 179.782104,65.880112 181.688492,69.708916 
	C176.619537,82.398544 176.199173,94.828423 181.952606,107.637589 
	C181.597076,110.400261 180.951828,112.782516 180.874435,115.183075 
	C180.702927,120.502075 180.852280,125.830605 180.802612,131.154602 
	C180.762207,135.483978 180.270187,139.548538 175.095612,140.989929 
	C168.864975,142.725510 164.298264,141.429916 160.974655,136.497375 
z"/>
<path fill="#81D07B" opacity="1.000000" stroke="none" 
	d="
M100.058517,134.396912 
	C106.405380,135.289337 112.977219,137.890930 119.331909,137.439041 
	C140.950089,135.901672 152.307816,120.548271 146.387787,99.143921 
	C147.428650,99.415070 148.438370,100.087814 149.730286,100.884644 
	C150.110428,109.177658 150.208374,117.346611 150.237213,125.934357 
	C148.560226,132.040924 144.380356,135.431885 139.512787,138.152115 
	C126.649353,145.340790 109.811928,143.845383 100.058517,134.396912 
z"/>
<path fill="#C2E8C0" opacity="1.000000" stroke="none" 
	d="
M266.870758,131.514130 
	C281.130127,130.792755 281.130676,130.792755 281.133087,116.166199 
	C281.134491,107.703773 281.116699,99.241272 281.149475,90.778976 
	C281.155579,89.201141 281.361053,87.624092 281.587036,84.482132 
	C283.612793,87.191154 284.735260,88.692184 285.956757,90.997238 
	C286.071167,101.896172 286.096130,111.991074 286.099579,122.085976 
	C286.104279,135.897278 285.868652,136.123627 271.855713,136.193359 
	C270.227570,134.741425 268.599426,133.289490 266.870758,131.514130 
z"/>
<path fill="#85D27F" opacity="1.000000" stroke="none" 
	d="
M271.951477,136.534058 
	C285.868652,136.123627 286.104279,135.897278 286.099579,122.085976 
	C286.096130,111.991074 286.071167,101.896172 286.027100,91.321091 
	C287.897003,93.040504 289.795624,95.240097 291.805542,97.753891 
	C291.657654,104.502037 291.322144,110.934113 291.163391,117.370552 
	C291.036469,122.516975 291.191040,127.669884 291.100006,132.817780 
	C290.993103,138.865280 289.204346,140.944199 283.145996,141.311508 
	C278.899628,141.568970 274.284271,141.983765 271.951477,136.534058 
z"/>
<path fill="#80D07A" opacity="1.000000" stroke="none" 
	d="
M403.798553,110.847359 
	C402.365814,110.335365 400.936554,109.386177 399.349670,107.738739 
	C398.827667,91.003273 398.463287,74.966057 398.098907,58.928837 
	C403.243134,60.148026 402.731323,64.539902 402.821655,68.136925 
	C403.071655,78.093506 402.835785,88.061264 402.964386,98.022385 
	C403.017731,102.154556 403.509613,106.281082 403.798553,110.847359 
z"/>
<path fill="#BEE7BB" opacity="1.000000" stroke="none" 
	d="
M397.890320,58.721596 
	C398.463287,74.966057 398.827667,91.003273 399.164062,107.463348 
	C397.138306,104.252113 393.653290,100.712288 393.415863,96.966621 
	C392.638611,84.704269 393.019409,72.366982 393.041077,60.058659 
	C393.042694,59.145966 393.728058,58.234478 394.423279,56.992172 
	C395.727905,57.279392 396.704834,57.896873 397.890320,58.721596 
z"/>
<path fill="#BFE7BC" opacity="1.000000" stroke="none" 
	d="
M123.817169,71.273758 
	C131.377609,71.667068 135.493195,68.244591 138.168732,59.062832 
	C139.888397,60.184776 141.488800,61.682205 143.142365,63.843697 
	C140.249725,73.579666 136.413300,76.707848 128.863098,76.194283 
	C128.140625,75.826622 127.418159,75.458969 126.309692,74.674644 
	C125.221519,73.263237 124.519348,72.268494 123.817169,71.273758 
z"/>
<path fill="#81D07B" opacity="1.000000" stroke="none" 
	d="
M128.988083,76.505203 
	C136.413300,76.707848 140.249725,73.579666 143.316864,64.129944 
	C148.458588,67.268196 149.042297,69.537537 146.192856,74.462311 
	C142.647278,80.590263 138.451355,82.683731 133.785019,80.367424 
	C132.064117,79.513184 130.661087,78.018639 128.988083,76.505203 
z"/>
<path fill="#81D07B" opacity="1.000000" stroke="none" 
	d="
M123.486649,71.198380 
	C124.519348,72.268494 125.221519,73.263237 126.036827,74.540634 
	C122.104416,75.413315 117.468040,74.331848 114.634155,79.204407 
	C112.833572,79.177483 111.203957,78.779564 109.218285,77.813004 
	C108.588791,72.890007 111.401344,71.215294 114.991386,70.349060 
	C116.715340,69.933098 118.509369,69.807495 120.271660,69.550400 
	C121.233147,70.074600 122.194641,70.598808 123.486649,71.198380 
z"/>
<path fill="#BEE7BB" opacity="1.000000" stroke="none" 
	d="
M394.406799,55.947071 
	C393.739624,55.652111 392.998566,55.077454 392.206665,54.165550 
	C392.881500,54.441326 393.607239,55.054352 394.406799,55.947071 
z"/>
<path fill="#4FBF48" opacity="1.000000" stroke="none" 
	d="
M209.148514,108.384918 
	C208.955017,102.768326 208.179962,97.245796 209.302490,92.140495 
	C210.034958,88.809219 213.522751,86.083771 216.156982,83.069931 
	C216.221924,86.295807 215.290588,89.643806 215.819656,92.742447 
	C216.140823,94.623497 218.719406,96.119102 220.671173,98.250801 
	C222.701004,100.148102 224.343552,101.582458 226.052078,103.360413 
	C227.922165,104.856377 229.726303,106.008728 231.530426,107.161087 
	C230.934784,108.432869 230.588928,110.586044 229.703964,110.836838 
	C222.699066,112.821884 215.702316,113.471642 209.148514,108.384918 
z"/>
<path fill="#4FBF48" opacity="1.000000" stroke="none" 
	d="
M217.444946,82.256271 
	C219.706985,76.785263 225.286728,76.450241 230.091156,76.547951 
	C234.248383,76.632492 238.359650,78.975853 242.699478,80.583557 
	C236.475342,80.901314 230.040833,80.879684 223.611877,81.057800 
	C221.675949,81.111435 219.755432,81.720375 217.444946,82.256271 
z"/>
<path fill="#BEE7BB" opacity="1.000000" stroke="none" 
	d="
M225.986115,103.016815 
	C224.343552,101.582458 222.701004,100.148102 221.016434,98.366653 
	C223.227371,97.989807 225.484543,98.036621 227.732239,97.912018 
	C230.945953,97.733864 232.116562,99.323730 231.378357,102.698151 
	C229.283524,103.049774 227.634811,103.033295 225.986115,103.016815 
z"/>
<path fill="#82D17C" opacity="1.000000" stroke="none" 
	d="
M226.052078,103.360420 
	C227.634811,103.033295 229.283524,103.049774 231.340164,103.119606 
	C231.747223,104.243874 231.746338,105.314804 231.637939,106.773407 
	C229.726303,106.008728 227.922165,104.856377 226.052078,103.360420 
z"/>
<path fill="#BEE7BB" opacity="1.000000" stroke="none" 
	d="
M480.977173,88.022789 
	C477.077881,88.582863 475.549347,86.869408 475.771118,82.991417 
	C475.978546,79.364128 475.677948,75.706665 475.912537,72.082657 
	C475.995361,70.803299 476.949860,68.529533 477.590393,68.499481 
	C484.070496,68.195419 490.826202,66.276260 496.725006,70.772888 
	C497.213928,71.145576 497.452209,71.847023 497.385681,72.743256 
	C492.985657,73.065552 489.004913,73.108742 485.028870,72.992325 
	C482.114197,72.906998 480.718506,74.110756 480.811188,77.087593 
	C480.924591,80.730850 480.926849,84.377571 480.977173,88.022789 
z"/>
<path fill="#80D07A" opacity="1.000000" stroke="none" 
	d="
M481.396118,88.060135 
	C480.926849,84.377571 480.924591,80.730850 480.811188,77.087593 
	C480.718506,74.110756 482.114197,72.906998 485.028870,72.992325 
	C489.004913,73.108742 492.985657,73.065552 497.424225,73.095383 
	C498.560150,74.521553 499.236237,75.943130 499.411987,77.699738 
	C497.763397,78.014725 496.615173,77.982132 495.466827,77.976608 
	C485.588409,77.929054 485.588409,77.930511 486.009888,87.978104 
	C484.611603,88.017899 483.213318,88.057693 481.396118,88.060135 
z"/>
<path fill="#4FBF48" opacity="1.000000" stroke="none" 
	d="
M486.439209,88.047340 
	C485.588409,77.930511 485.588409,77.929054 495.466827,77.976608 
	C496.615173,77.982132 497.763397,78.014725 499.364929,78.051849 
	C499.386444,85.432220 495.887390,88.147148 486.439209,88.047340 
z"/>
<path fill="#C2E8C0" opacity="1.000000" stroke="none" 
	d="
M120.167000,69.227112 
	C118.509369,69.807495 116.715340,69.933098 114.991386,70.349060 
	C111.401344,71.215294 108.588791,72.890007 108.897415,77.646065 
	C104.982857,76.538956 102.933563,73.860245 104.182228,69.555962 
	C105.155754,66.200134 110.296227,64.160988 114.815140,65.548935 
	C116.727295,66.136238 118.322868,67.754272 120.167000,69.227112 
z"/>
</svg>