<svg version="1.1" id="Layer_1" xmlns="http://www.w3.org/2000/svg" xmlns:xlink="http://www.w3.org/1999/xlink" x="0px" y="0px"
	 width="100%" viewBox="0 0 600 200" enable-background="new 0 0 600 200" xml:space="preserve">
<path fill="#4CBE44" opacity="1.000000" stroke="none" 
	d="
M420.000000,201.000000 
	C280.043579,201.000000 140.587173,201.000000 1.065380,201.000000 
	C1.065380,134.397812 1.065380,67.795525 1.065380,1.096624 
	C200.999985,1.096624 400.999969,1.096624 600.971680,1.096624 
	C600.971680,67.746086 600.971680,134.373047 600.971680,201.000000 
	C540.795593,201.000000 480.647797,201.000000 420.000000,201.000000 
M331.111084,80.260361 
	C330.051300,79.272911 328.991547,78.285461 327.581299,76.702568 
	C326.514954,75.443222 325.624786,73.960854 324.355682,72.958130 
	C306.611420,58.938507 277.265594,68.227051 271.017975,90.004730 
	C267.600433,101.917480 268.351410,118.262123 287.301605,131.592743 
	C289.787384,133.198135 292.273163,134.803528 295.090088,136.989792 
	C304.617950,143.714203 318.865570,143.565475 329.408569,136.631577 
	C335.313538,132.748016 335.565430,129.057632 329.936401,123.286919 
	C328.884033,122.321083 327.831665,121.355255 326.393951,119.826591 
	C321.843597,114.422577 320.630188,110.972893 311.925293,116.614868 
	C306.347229,120.230232 299.580597,119.659149 293.869904,114.319878 
	C291.740936,101.998283 295.180847,93.844101 304.717651,90.894585 
	C308.803680,89.630875 313.488525,90.303307 318.336212,90.566887 
	C318.946259,90.751701 319.556335,90.936516 320.578827,91.615608 
	C324.679810,96.239433 328.485901,93.966415 332.624481,91.984055 
	C329.018005,109.359802 335.722717,122.346947 350.016357,132.820145 
	C351.617523,133.972672 353.218719,135.125198 355.149567,136.862854 
	C365.795074,144.843246 383.285400,143.895370 393.173126,134.169159 
	C397.345490,130.064972 400.368530,124.792328 404.003479,120.946632 
	C404.462921,125.761017 402.169403,131.603546 409.064484,134.687668 
	C410.004883,135.511047 410.945251,136.334412 412.133057,137.821808 
	C415.176880,141.992950 419.360321,141.367920 423.405518,140.172729 
	C427.266449,139.031982 427.077667,135.567673 427.157654,132.342438 
	C427.375000,123.575073 427.676697,114.809807 428.459808,106.472557 
	C431.608643,110.008926 434.757477,113.545296 438.252075,117.621735 
	C439.421387,118.551453 440.590729,119.481171 442.029297,121.027481 
	C446.416229,124.717171 450.273682,124.506996 453.998749,120.261421 
	C456.063293,117.908409 457.989288,115.433800 460.107605,113.939331 
	C460.121979,117.902290 460.229980,121.867760 460.123871,125.827492 
	C460.021729,129.639221 460.980011,132.691589 465.123169,134.632721 
	C466.068268,135.438187 467.013367,136.243652 468.194366,137.721573 
	C473.824738,143.520035 481.509827,141.911591 483.774353,134.490829 
	C484.048920,133.590988 484.636963,132.786819 485.587799,132.292709 
	C486.646515,132.929214 487.705261,133.565720 488.918182,134.826736 
	C489.887634,135.642960 490.857086,136.459183 492.076385,137.943054 
	C494.395172,138.944931 496.694855,140.757736 499.035950,140.812912 
	C511.324036,141.102509 523.622559,140.950974 535.917480,140.944275 
	C539.310425,140.942444 542.388184,140.208267 543.152649,136.317108 
	C543.921082,132.405609 544.715698,128.316071 539.703613,125.407463 
	C538.482422,124.254036 537.261292,123.100609 535.755005,121.305222 
	C533.533386,120.116302 531.311768,118.927391 529.157227,117.057678 
	C530.000610,115.924828 530.816223,114.769966 531.692444,113.663078 
	C534.889771,109.623962 534.281189,103.944206 529.920959,100.310661 
	C528.671875,99.141266 527.422791,97.971863 525.857056,96.132500 
	C523.877136,95.094475 521.976379,93.407478 519.900757,93.154510 
	C515.673584,92.639297 511.352234,92.897446 507.189240,92.086563 
	C508.865814,91.401550 510.526855,90.172882 512.221558,90.124542 
	C520.047180,89.901344 527.882263,89.986519 535.713806,90.003479 
	C539.144165,90.010902 542.252136,89.301888 542.989807,85.420006 
	C543.722839,81.562836 544.669434,77.414764 539.628235,74.466248 
	C538.450989,73.605614 537.273743,72.744972 535.950745,71.160522 
	C534.834473,67.309639 531.819214,66.872009 528.455078,66.881729 
	C516.634521,66.915878 504.813629,66.860130 492.993073,66.904221 
	C485.345825,66.932739 484.219788,68.083923 483.129181,75.845901 
	C482.113770,75.541985 481.098328,75.238068 479.721436,74.401512 
	C478.499756,73.241959 477.278046,72.082405 475.804596,70.246414 
	C471.384857,65.418938 463.968964,65.573624 459.913239,70.750557 
	C453.493591,78.944870 447.207489,87.243790 440.629425,95.804848 
	C439.220825,94.072433 438.180603,92.803558 437.151520,91.525696 
	C431.427704,84.418243 425.732361,77.287689 419.974884,70.207626 
	C416.594635,66.050888 412.044128,66.388466 407.643677,67.654060 
	C403.443726,68.862000 404.074615,72.719643 404.034393,75.999168 
	C403.957001,82.308113 403.936676,88.617752 403.434845,94.464622 
	C402.048584,92.582848 400.662323,90.701065 398.944824,88.239166 
	C397.567230,86.593407 396.189636,84.947655 394.456116,82.727524 
	C388.643951,75.796173 382.342865,69.559441 373.217407,67.097336 
	C360.496857,63.665264 343.947723,68.091881 334.597046,84.511452 
	C333.533417,83.290550 332.469788,82.069649 331.111084,80.260361 
M93.002960,138.185333 
	C98.379494,142.605484 103.585678,141.401779 106.189369,134.787735 
	C109.021187,127.594223 111.448456,120.241455 114.510498,113.538437 
	C115.637306,116.834747 116.891228,120.094208 117.859985,123.436317 
	C119.185570,128.009430 120.812340,132.283081 125.799614,135.024628 
	C126.826637,135.855316 127.853661,136.686020 129.093552,138.153107 
	C134.561279,142.826096 140.150757,141.142273 142.766083,133.801941 
	C147.336258,120.974884 151.700256,108.074471 156.237625,95.235519 
	C156.755539,93.769997 157.829681,92.501038 158.717178,92.057747 
	C158.722610,103.217667 158.834885,114.379105 158.677505,125.536728 
	C158.619751,129.630096 159.695297,132.708939 163.822830,134.921860 
	C164.940720,135.882172 166.058624,136.842484 167.455795,138.490311 
	C170.025131,139.323303 172.577240,140.806595 175.166824,140.875183 
	C185.620209,141.152023 196.085175,140.996979 206.545853,140.992905 
	C215.882614,140.989273 215.882614,140.984329 219.767853,132.970978 
	C220.471634,133.346146 221.175430,133.721329 222.047821,134.705978 
	C222.999191,135.510468 223.950562,136.314957 225.164154,137.782852 
	C227.288025,138.829849 229.389206,140.724731 231.539536,140.782211 
	C242.982513,141.088150 254.444168,141.129227 265.882904,140.756653 
	C267.915680,140.690475 271.125092,138.574417 271.588348,136.822464 
	C272.429077,133.642776 273.510376,129.290329 268.031555,127.225563 
	C267.057495,126.438698 266.083435,125.651833 264.830933,124.199615 
	C262.472107,122.800438 260.209930,120.447319 257.734741,120.196457 
	C252.221176,119.637672 246.601105,120.129768 240.943985,119.234108 
	C240.925644,107.072144 240.946442,94.909912 240.862045,82.748405 
	C240.840378,79.625290 241.116455,76.197594 236.713699,74.418083 
	C235.622574,73.462585 234.531448,72.507088 233.109100,70.921104 
	C230.492935,65.686218 225.771393,66.650459 221.455994,67.289238 
	C217.198151,67.919479 217.118637,71.611099 216.250549,74.973091 
	C215.828415,74.986923 215.406296,75.000755 214.617737,74.482132 
	C213.401779,73.335274 212.185822,72.188416 210.638977,70.391846 
	C208.290634,69.226860 205.969055,67.122765 203.589462,67.054985 
	C191.513458,66.710983 179.422180,66.850586 167.336731,66.911705 
	C160.525314,66.946159 159.407639,68.048782 158.063889,74.937195 
	C157.687057,74.981750 157.310226,75.026306 156.579636,74.567406 
	C155.755112,74.002083 154.930588,73.436760 153.844681,72.248528 
	C153.005981,71.228508 152.315613,70.021667 151.304474,69.218803 
	C144.753647,64.017365 139.530716,65.533226 136.924591,73.339485 
	C135.081863,78.859077 133.330963,84.409546 131.459381,89.919159 
	C130.659622,92.273499 129.657104,94.558960 128.746719,96.875710 
	C126.491524,93.422943 125.564835,90.066719 124.164146,86.921600 
	C121.767532,81.540237 119.578011,75.945457 116.281914,71.139618 
	C114.751602,68.908379 110.892380,67.418068 107.972191,67.207016 
	C104.069603,66.924957 102.049698,70.230865 100.896828,73.816856 
	C98.963219,79.831383 96.974144,85.828979 94.919456,91.803101 
	C94.326576,93.526970 93.429070,95.146072 92.144249,97.972450 
	C89.490662,90.030777 87.823936,83.181618 84.886848,76.929230 
	C83.034668,72.986351 79.920944,68.214630 76.246635,66.851837 
	C69.100655,64.201401 63.620304,71.063393 66.173706,78.465675 
	C71.703621,94.496857 77.168610,110.554054 83.038544,126.460983 
	C84.093201,129.318985 86.962044,131.507523 89.258987,134.600128 
	C90.404648,135.597183 91.550308,136.594254 93.002960,138.185333 
z"/>
<path fill="#FAFDFA" opacity="1.000000" stroke="none" 
	d="
M88.993279,134.005142 
	C86.962044,131.507523 84.093201,129.318985 83.038544,126.460983 
	C77.168610,110.554054 71.703621,94.496857 66.173706,78.465675 
	C63.620304,71.063393 69.100655,64.201401 76.246635,66.851837 
	C79.920944,68.214630 83.034668,72.986351 84.886848,76.929230 
	C87.823936,83.181618 89.490662,90.030777 92.144249,97.972450 
	C93.429070,95.146072 94.326576,93.526970 94.919456,91.803101 
	C96.974144,85.828979 98.963219,79.831383 100.896828,73.816856 
	C102.049698,70.230865 104.069603,66.924957 107.972191,67.207016 
	C110.892380,67.418068 114.751602,68.908379 116.281914,71.139618 
	C119.578011,75.945457 121.767532,81.540237 124.164146,86.921600 
	C125.564835,90.066719 126.491524,93.422943 128.746719,96.875710 
	C129.657104,94.558960 130.659622,92.273499 131.459381,89.919159 
	C133.330963,84.409546 135.081863,78.859077 136.924591,73.339485 
	C139.530716,65.533226 144.753647,64.017365 151.304474,69.218803 
	C152.315613,70.021667 153.005981,71.228508 153.818237,72.913292 
	C147.922546,90.705956 141.878387,107.777039 136.284348,124.994362 
	C134.467285,130.586960 131.459076,133.899902 125.569824,134.404800 
	C120.812340,132.283081 119.185570,128.009430 117.859985,123.436317 
	C116.891228,120.094208 115.637306,116.834747 114.267319,112.880234 
	C113.018951,109.978050 112.013748,107.734070 111.050797,105.150818 
	C110.637863,103.212387 110.182678,101.613235 109.727493,100.014091 
	C105.610512,108.691368 102.640709,117.258728 99.842316,125.881706 
	C98.107162,131.228409 94.979156,134.459702 88.993279,134.005142 
z"/>
<path fill="#FDFEFD" opacity="1.000000" stroke="none" 
	d="
M403.892700,94.927109 
	C403.936676,88.617752 403.957001,82.308113 404.034393,75.999168 
	C404.074615,72.719643 403.443726,68.862000 407.643677,67.654060 
	C412.044128,66.388466 416.594635,66.050888 419.974884,70.207626 
	C425.732361,77.287689 431.427704,84.418243 437.151520,91.525696 
	C438.180603,92.803558 439.220825,94.072433 440.629425,95.804848 
	C447.207489,87.243790 453.493591,78.944870 459.913239,70.750557 
	C463.968964,65.573624 471.384857,65.418938 475.914734,71.058029 
	C476.066742,89.909630 476.161194,107.949745 476.121185,125.989555 
	C476.107635,132.099594 474.225616,133.752151 467.931946,133.880142 
	C466.943237,133.900238 465.955627,133.974197 464.967529,134.023239 
	C460.980011,132.691589 460.021729,129.639221 460.123871,125.827492 
	C460.229980,121.867760 460.121979,117.902290 460.120972,113.035141 
	C460.057404,109.462982 459.980469,106.795021 459.956421,103.713158 
	C460.009277,101.282814 460.009277,99.266373 460.009277,97.249924 
	C455.465668,101.532234 452.027679,105.937828 448.931213,110.571617 
	C446.240906,114.597534 442.768250,116.919571 437.906311,117.081650 
	C434.757477,113.545296 431.608643,110.008926 428.106201,105.942703 
	C426.502960,103.873436 425.253296,102.334038 423.896423,100.499588 
	C422.919037,99.126137 422.048889,98.047729 420.530884,96.166458 
	C420.311768,98.370461 420.112396,99.465576 420.108337,100.561417 
	C420.076324,109.193901 420.148895,117.827293 420.050446,126.458824 
	C419.990021,131.755737 418.110138,133.589905 412.873444,133.902054 
	C411.552277,133.980804 410.228546,134.017548 408.906006,134.073608 
	C402.169403,131.603546 404.462921,125.761017 404.037872,120.032547 
	C404.012421,111.054672 403.952576,102.990891 403.892700,94.927109 
z"/>
<path fill="#FDFEFD" opacity="1.000000" stroke="none" 
	d="
M349.748688,132.218048 
	C335.722717,122.346947 329.018005,109.359802 332.394562,91.522926 
	C332.164642,91.061798 332.102081,91.160965 332.451050,91.086243 
	C333.032043,90.339516 333.264038,89.667511 333.691589,88.755943 
	C334.258667,87.344666 334.630188,86.172943 335.001678,85.001213 
	C343.947723,68.091881 360.496857,63.665264 373.217407,67.097336 
	C382.342865,69.559441 388.643951,75.796173 394.620178,83.398224 
	C395.291901,85.648308 395.793671,87.229607 396.308044,88.806786 
	C404.125275,112.776375 386.637665,136.647079 362.358154,134.904572 
	C358.112579,134.599869 353.949738,133.142868 349.748688,132.218048 
M373.659027,85.378235 
	C366.184967,80.264267 357.359314,81.740868 351.645752,89.061234 
	C346.205536,96.031395 346.631073,106.829292 352.889191,112.751503 
	C353.961395,113.761307 355.033569,114.771111 356.646515,116.266144 
	C364.144257,120.574898 372.054260,119.275208 377.684692,112.809364 
	C383.081879,106.611397 383.332123,96.484047 378.043335,89.196060 
	C376.698853,88.127167 375.354370,87.058266 373.659027,85.378235 
z"/>
<path fill="#FEFEFE" opacity="1.000000" stroke="none" 
	d="
M163.702774,134.293152 
	C159.695297,132.708939 158.619751,129.630096 158.677505,125.536728 
	C158.834885,114.379105 158.722610,103.217667 158.789520,91.133766 
	C158.785461,85.093910 158.709076,79.978035 158.632690,74.862160 
	C159.407639,68.048782 160.525314,66.946159 167.336731,66.911705 
	C179.422180,66.850586 191.513458,66.710983 203.589462,67.054985 
	C205.969055,67.122765 208.290634,69.226860 210.777069,71.151978 
	C211.294724,81.641708 209.995926,83.030838 200.419815,83.058220 
	C193.428696,83.078217 186.437164,83.108925 179.446487,83.053276 
	C176.780319,83.032059 174.865158,83.546913 174.960159,86.834328 
	C175.039917,89.594414 174.720001,92.454048 179.263077,92.162170 
	C180.435593,92.142006 181.216995,92.072609 182.452972,92.105942 
	C186.524078,92.237587 190.141144,92.318756 193.756973,92.280418 
	C197.226562,92.243629 199.815460,93.490471 201.038666,97.320938 
	C201.078384,107.217278 200.054794,108.247047 190.493530,108.280350 
	C186.855026,108.293015 183.215179,108.352699 179.578354,108.276215 
	C176.676697,108.215187 174.789841,108.941330 174.935486,112.409668 
	C175.059280,115.357735 174.756210,118.352562 179.641052,117.780495 
	C188.094788,117.783623 196.091675,117.762962 204.460205,117.795105 
	C206.883987,119.237282 208.936096,120.626656 210.962860,122.453201 
	C211.325851,132.745285 210.076111,133.999512 200.008591,134.049454 
	C187.906540,134.109497 175.804703,134.210098 163.702774,134.293152 
z"/>
<path fill="#FEFFFE" opacity="1.000000" stroke="none" 
	d="
M529.090149,117.738472 
	C531.311768,118.927391 533.533386,120.116302 535.867432,122.072250 
	C536.296875,132.968826 535.303894,133.975952 525.141052,134.014618 
	C513.015320,134.060745 500.889679,134.138290 488.763977,134.202209 
	C487.705261,133.565720 486.646515,132.929214 485.237427,131.708893 
	C484.564728,128.678802 483.982605,126.234711 483.962219,123.785919 
	C483.829346,107.825165 483.818268,91.863380 483.767334,75.901939 
	C484.219788,68.083923 485.345825,66.932739 492.993073,66.904221 
	C504.813629,66.860130 516.634521,66.915878 528.455078,66.881729 
	C531.819214,66.872009 534.834473,67.309639 535.998657,71.964005 
	C536.214966,81.847565 535.054565,83.031410 525.871643,83.056908 
	C518.764404,83.076645 511.657074,83.062981 504.549805,83.073120 
	C502.334045,83.076279 500.025757,83.017715 500.082794,86.216652 
	C500.130463,88.889725 499.125488,92.247810 503.965759,92.442261 
	C505.173889,92.741425 506.121765,92.789192 507.069672,92.836952 
	C511.352234,92.897446 515.673584,92.639297 519.900757,93.154510 
	C521.976379,93.407478 523.877136,95.094475 525.953979,96.915710 
	C526.104431,107.521149 525.397095,108.244957 515.679504,108.279564 
	C511.858002,108.293167 508.035278,108.355621 504.215302,108.281952 
	C501.364838,108.226982 499.876282,109.252602 500.000763,112.346985 
	C500.117737,115.254288 499.675262,118.363625 504.658813,117.759659 
	C513.106079,117.773521 521.098083,117.755997 529.090149,117.738472 
z"/>
<path fill="#FCFEFC" opacity="1.000000" stroke="none" 
	d="
M287.038025,130.971313 
	C268.351410,118.262123 267.600433,101.917480 271.017975,90.004730 
	C277.265594,68.227051 306.611420,58.938507 324.355682,72.958130 
	C325.624786,73.960854 326.514954,75.443222 327.506531,77.344238 
	C325.267792,81.133934 323.103821,84.281967 320.559021,87.489502 
	C319.161041,87.646767 318.143921,87.744537 316.860718,87.692581 
	C315.687897,87.079849 314.781219,86.616859 313.717194,85.833717 
	C306.074646,80.218155 294.600647,82.235832 289.126434,89.810135 
	C284.585480,96.093140 284.697693,105.313622 289.468018,110.232712 
	C291.002869,112.079796 292.440948,113.622581 293.879059,115.165367 
	C299.580597,119.659149 306.347229,120.230232 311.925293,116.614868 
	C320.630188,110.972893 321.843597,114.422577 326.580231,120.493187 
	C327.591187,124.764687 326.009796,127.193985 323.044922,129.051041 
	C313.491669,135.034714 303.443298,136.747681 292.671509,132.771393 
	C290.823944,132.089386 288.917358,131.567291 287.038025,130.971313 
z"/>
<path fill="#FDFEFD" opacity="1.000000" stroke="none" 
	d="
M241.024445,120.193604 
	C246.601105,120.129768 252.221176,119.637672 257.734741,120.196457 
	C260.209930,120.447319 262.472107,122.800438 264.878235,124.949722 
	C264.599579,132.986176 263.623596,133.964340 256.308167,134.002731 
	C244.831985,134.062973 233.355545,134.068054 221.879211,134.096497 
	C221.175430,133.721329 220.471634,133.346146 219.296295,132.580124 
	C218.176468,130.109116 217.528183,128.028961 216.941681,125.487030 
	C216.969284,113.031456 216.935089,101.037666 216.964081,88.579803 
	C216.979355,83.726540 216.931488,79.337357 216.883606,74.948166 
	C217.118637,71.611099 217.198151,67.919479 221.455994,67.289238 
	C225.771393,66.650459 230.492935,65.686218 233.154175,71.721893 
	C233.174545,86.984032 233.189117,101.445633 233.092377,115.906502 
	C233.072754,118.840683 233.823410,120.802437 237.487442,120.899132 
	C238.898697,120.707794 239.961578,120.450699 241.024445,120.193604 
z"/>
<path fill="#BFE7BC" opacity="1.000000" stroke="none" 
	d="
M349.882507,132.519104 
	C353.949738,133.142868 358.112579,134.599869 362.358154,134.904572 
	C386.637665,136.647079 404.125275,112.776375 396.308044,88.806786 
	C395.793671,87.229607 395.291901,85.648308 394.798157,83.685417 
	C396.189636,84.947655 397.567230,86.593407 399.090698,88.922913 
	C399.675323,91.203918 400.135590,92.795616 400.549530,94.399277 
	C406.102142,115.910057 392.442627,136.604080 370.936707,138.436829 
	C365.664062,138.886139 360.197357,137.058533 354.819885,136.277740 
	C353.218719,135.125198 351.617523,133.972672 349.882507,132.519104 
z"/>
<path fill="#84D27E" opacity="1.000000" stroke="none" 
	d="
M158.348297,74.899673 
	C158.709076,79.978035 158.785461,85.093910 158.753891,90.675354 
	C157.829681,92.501038 156.755539,93.769997 156.237625,95.235519 
	C151.700256,108.074471 147.336258,120.974884 142.766083,133.801941 
	C140.150757,141.142273 134.561279,142.826096 129.388107,137.744720 
	C134.304718,137.149124 137.471161,135.177231 139.043732,130.554291 
	C144.621429,114.157333 150.392258,97.826088 155.974121,81.430519 
	C156.654083,79.433266 156.630768,77.196579 156.933395,75.070862 
	C157.310226,75.026306 157.687057,74.981750 158.348297,74.899673 
z"/>
<path fill="#C0E7BD" opacity="1.000000" stroke="none" 
	d="
M156.756516,74.819138 
	C156.630768,77.196579 156.654083,79.433266 155.974121,81.430519 
	C150.392258,97.826088 144.621429,114.157333 139.043732,130.554291 
	C137.471161,135.177231 134.304718,137.149124 129.281677,137.426514 
	C127.853661,136.686020 126.826637,135.855316 125.684723,134.714722 
	C131.459076,133.899902 134.467285,130.586960 136.284348,124.994362 
	C141.878387,107.777039 147.922546,90.705956 153.948944,73.224747 
	C154.930588,73.436760 155.755112,74.002083 156.756516,74.819138 
z"/>
<path fill="#82D17C" opacity="1.000000" stroke="none" 
	d="
M354.984741,136.570312 
	C360.197357,137.058533 365.664062,138.886139 370.936707,138.436829 
	C392.442627,136.604080 406.102142,115.910057 400.549530,94.399277 
	C400.135590,92.795616 399.675323,91.203918 399.256317,89.212982 
	C400.662323,90.701065 402.048584,92.582848 403.663788,94.695862 
	C403.952576,102.990891 404.012421,111.054672 403.993134,119.584625 
	C400.368530,124.792328 397.345490,130.064972 393.173126,134.169159 
	C383.285400,143.895370 365.795074,144.843246 354.984741,136.570312 
z"/>
<path fill="#85D27F" opacity="1.000000" stroke="none" 
	d="
M483.448242,75.873917 
	C483.818268,91.863380 483.829346,107.825165 483.962219,123.785919 
	C483.982605,126.234711 484.564728,128.678802 484.983368,131.531693 
	C484.636963,132.786819 484.048920,133.590988 483.774353,134.490829 
	C481.509827,141.911591 473.824738,143.520035 468.523499,137.389969 
	C478.918549,137.240463 479.956604,136.223602 479.978516,126.127380 
	C480.015625,109.062981 480.048340,91.998558 480.082916,74.934151 
	C481.098328,75.238068 482.113770,75.541985 483.448242,75.873917 
z"/>
<path fill="#C4E9C1" opacity="1.000000" stroke="none" 
	d="
M479.902161,74.667831 
	C480.048340,91.998558 480.015625,109.062981 479.978516,126.127380 
	C479.956604,136.223602 478.918549,137.240463 468.405548,137.053741 
	C467.013367,136.243652 466.068268,135.438187 465.045349,134.327972 
	C465.955627,133.974197 466.943237,133.900238 467.931946,133.880142 
	C474.225616,133.752151 476.107635,132.099594 476.121185,125.989555 
	C476.161194,107.949745 476.066742,89.909630 476.040619,71.396240 
	C477.278046,72.082405 478.499756,73.241959 479.902161,74.667831 
z"/>
<path fill="#86D280" opacity="1.000000" stroke="none" 
	d="
M540.060974,125.946480 
	C544.715698,128.316071 543.921082,132.405609 543.152649,136.317108 
	C542.388184,140.208267 539.310425,140.942444 535.917480,140.944275 
	C523.622559,140.950974 511.324036,141.102509 499.035950,140.812912 
	C496.694855,140.757736 494.395172,138.944931 492.431488,137.584351 
	C505.703156,137.217728 518.620056,137.257477 531.536194,137.181976 
	C538.073303,137.143768 539.600769,135.538223 539.911133,128.921234 
	C539.957642,127.929497 540.010864,126.938057 540.060974,125.946480 
z"/>
<path fill="#BAE5B7" opacity="1.000000" stroke="none" 
	d="
M163.762802,134.607513 
	C175.804703,134.210098 187.906540,134.109497 200.008591,134.049454 
	C210.076111,133.999512 211.325851,132.745285 211.268417,122.550888 
	C212.737137,123.470345 213.874939,124.729294 214.979828,126.413643 
	C214.743454,136.202179 213.181717,137.770874 203.862167,137.791260 
	C191.633667,137.818024 179.405075,137.800995 167.176514,137.802795 
	C166.058624,136.842484 164.940720,135.882172 163.762802,134.607513 
z"/>
<path fill="#BDE6BA" opacity="1.000000" stroke="none" 
	d="
M178.871979,92.112946 
	C174.720001,92.454048 175.039917,89.594414 174.960159,86.834328 
	C174.865158,83.546913 176.780319,83.032059 179.446487,83.053276 
	C186.437164,83.108925 193.428696,83.078217 200.419815,83.058220 
	C209.995926,83.030838 211.294724,81.641708 210.942505,71.476837 
	C212.185822,72.188416 213.401779,73.335274 214.765472,75.176361 
	C214.722794,85.481697 213.429901,86.769844 203.827377,86.805695 
	C197.166412,86.830574 190.501434,86.953545 183.845703,86.766762 
	C179.881287,86.655518 178.287048,88.242210 178.871979,92.112946 
z"/>
<path fill="#86D280" opacity="1.000000" stroke="none" 
	d="
M268.341064,127.811211 
	C273.510376,129.290329 272.429077,133.642776 271.588348,136.822464 
	C271.125092,138.574417 267.915680,140.690475 265.882904,140.756653 
	C254.444168,141.129227 242.982513,141.088150 231.539536,140.782211 
	C229.389206,140.724731 227.288025,138.829849 225.508347,137.459335 
	C236.749161,137.163391 247.645782,137.217010 258.542389,137.210495 
	C267.626038,137.205048 267.839874,136.968491 268.341064,127.811211 
z"/>
<path fill="#BDE6BA" opacity="1.000000" stroke="none" 
	d="
M503.705536,92.190872 
	C499.125488,92.247810 500.130463,88.889725 500.082794,86.216652 
	C500.025757,83.017715 502.334045,83.076279 504.549805,83.073120 
	C511.657074,83.062981 518.764404,83.076645 525.871643,83.056908 
	C535.054565,83.031410 536.214966,81.847565 536.071533,72.325912 
	C537.273743,72.744972 538.450989,73.605614 539.810974,75.144638 
	C539.806030,85.628288 538.625427,86.777954 528.622559,86.807289 
	C522.168091,86.826210 515.706238,87.000450 509.261597,86.749039 
	C505.159698,86.589020 503.434814,88.206863 503.705536,92.190872 
z"/>
<path fill="#7DCF76" opacity="1.000000" stroke="none" 
	d="
M529.123657,117.398071 
	C521.098083,117.755997 513.106079,117.773521 504.594330,117.353714 
	C503.323792,113.141541 505.055847,111.900070 508.664642,112.030006 
	C513.264954,112.195641 517.876770,112.024414 522.483521,112.033005 
	C527.349121,112.042076 529.727112,109.554695 529.933899,104.779266 
	C529.990662,103.469383 530.174622,102.165016 530.300171,100.858109 
	C534.281189,103.944206 534.889771,109.623962 531.692444,113.663078 
	C530.816223,114.769966 530.000610,115.924828 529.123657,117.398071 
z"/>
<path fill="#C0E7BD" opacity="1.000000" stroke="none" 
	d="
M539.882324,125.676971 
	C540.010864,126.938057 539.957642,127.929497 539.911133,128.921234 
	C539.600769,135.538223 538.073303,137.143768 531.536194,137.181976 
	C518.620056,137.257477 505.703156,137.217728 492.306549,137.250519 
	C490.857086,136.459183 489.887634,135.642960 488.841064,134.514465 
	C500.889679,134.138290 513.015320,134.060745 525.141052,134.014618 
	C535.303894,133.975952 536.296875,132.968826 536.009949,122.393234 
	C537.261292,123.100609 538.482422,124.254036 539.882324,125.676971 
z"/>
<path fill="#84D27E" opacity="1.000000" stroke="none" 
	d="
M313.874542,86.153870 
	C314.781219,86.616859 315.687897,87.079849 316.944275,87.980301 
	C317.496429,88.977180 317.698853,89.536598 317.901276,90.096024 
	C313.488525,90.303307 308.803680,89.630875 304.717651,90.894585 
	C295.180847,93.844101 291.740936,101.998283 293.874481,114.742622 
	C292.440948,113.622581 291.002869,112.079796 289.610931,109.924973 
	C289.643188,108.655251 289.687317,107.990341 289.606720,107.340919 
	C288.040253,94.721359 296.141510,85.750664 308.911438,85.989700 
	C310.566254,86.020668 312.220184,86.098007 313.874542,86.153870 
z"/>
<path fill="#C1E8BE" opacity="1.000000" stroke="none" 
	d="
M237.139069,120.833374 
	C233.823410,120.802437 233.072754,118.840683 233.092377,115.906502 
	C233.189117,101.445633 233.174545,86.984032 233.319794,72.037140 
	C234.531448,72.507088 235.622574,73.462585 236.859161,75.152374 
	C237.049438,90.868896 237.094254,105.851135 237.139069,120.833374 
z"/>
<path fill="#82D17C" opacity="1.000000" stroke="none" 
	d="
M167.316162,138.146545 
	C179.405075,137.800995 191.633667,137.818024 203.862167,137.791260 
	C213.181717,137.770874 214.743454,136.202179 215.290924,126.404015 
	C216.049957,125.962265 216.464920,125.955536 216.879898,125.948807 
	C217.528183,128.028961 218.176468,130.109116 219.006500,132.501801 
	C215.882614,140.984329 215.882614,140.989273 206.545853,140.992905 
	C196.085175,140.996979 185.620209,141.152023 175.166824,140.875183 
	C172.577240,140.806595 170.025131,139.323303 167.316162,138.146545 
z"/>
<path fill="#C0E7BD" opacity="1.000000" stroke="none" 
	d="
M408.985229,134.380630 
	C410.228546,134.017548 411.552277,133.980804 412.873444,133.902054 
	C418.110138,133.589905 419.990021,131.755737 420.050446,126.458824 
	C420.148895,117.827293 420.076324,109.193901 420.108337,100.561417 
	C420.112396,99.465576 420.311768,98.370461 420.530884,96.166458 
	C422.048889,98.047729 422.919037,99.126137 423.877472,100.982788 
	C423.936890,111.029259 423.997528,120.298943 423.845978,129.565140 
	C423.753479,135.221603 421.898407,136.955353 416.354034,137.150085 
	C414.866302,137.202347 413.375214,137.157852 411.885651,137.157776 
	C410.945251,136.334412 410.004883,135.511047 408.985229,134.380630 
z"/>
<path fill="#C0E7BD" opacity="1.000000" stroke="none" 
	d="
M89.126129,134.302643 
	C94.979156,134.459702 98.107162,131.228409 99.842316,125.881706 
	C102.640709,117.258728 105.610512,108.691368 109.727493,100.014091 
	C110.182678,101.613235 110.637863,103.212387 111.017570,105.565918 
	C108.529152,113.669891 105.920128,120.962601 103.766472,128.387390 
	C102.098915,134.136353 98.991005,137.651443 92.695969,137.591309 
	C91.550308,136.594254 90.404648,135.597183 89.126129,134.302643 
z"/>
<path fill="#BFE7BC" opacity="1.000000" stroke="none" 
	d="
M287.169800,131.282028 
	C288.917358,131.567291 290.823944,132.089386 292.671509,132.771393 
	C303.443298,136.747681 313.491669,135.034714 323.044922,129.051041 
	C326.009796,127.193985 327.591187,124.764687 326.772888,120.774605 
	C327.831665,121.355255 328.884033,122.321083 330.101318,123.914322 
	C329.623566,126.780373 329.622986,129.651901 328.187073,131.108597 
	C326.058502,133.268021 323.034546,134.702896 320.176636,135.955460 
	C311.814423,139.620392 303.269379,138.191299 294.758942,136.408920 
	C292.273163,134.803528 289.787384,133.198135 287.169800,131.282028 
z"/>
<path fill="#82D17C" opacity="1.000000" stroke="none" 
	d="
M92.849464,137.888321 
	C98.991005,137.651443 102.098915,134.136353 103.766472,128.387390 
	C105.920128,120.962601 108.529152,113.669891 110.975327,105.905197 
	C112.013748,107.734070 113.018951,109.978050 114.038124,112.590080 
	C111.448456,120.241455 109.021187,127.594223 106.189369,134.787735 
	C103.585678,141.401779 98.379494,142.605484 92.849464,137.888321 
z"/>
<path fill="#BDE6BA" opacity="1.000000" stroke="none" 
	d="
M530.110596,100.584381 
	C530.174622,102.165016 529.990662,103.469383 529.933899,104.779266 
	C529.727112,109.554695 527.349121,112.042076 522.483521,112.033005 
	C517.876770,112.024414 513.264954,112.195641 508.664642,112.030006 
	C505.055847,111.900070 503.323792,113.141541 504.139099,117.322327 
	C499.675262,118.363625 500.117737,115.254288 500.000763,112.346985 
	C499.876282,109.252602 501.364838,108.226982 504.215302,108.281952 
	C508.035278,108.355621 511.858002,108.293167 515.679504,108.279564 
	C525.397095,108.244957 526.104431,107.521149 526.112244,97.250694 
	C527.422791,97.971863 528.671875,99.141266 530.110596,100.584381 
z"/>
<path fill="#7DCF76" opacity="1.000000" stroke="none" 
	d="
M237.487457,120.899132 
	C237.094254,105.851135 237.049438,90.868896 237.044159,75.415398 
	C241.116455,76.197594 240.840378,79.625290 240.862045,82.748405 
	C240.946442,94.909912 240.925644,107.072144 240.984222,119.713852 
	C239.961578,120.450699 238.898697,120.707794 237.487457,120.899132 
z"/>
<path fill="#82D17C" opacity="1.000000" stroke="none" 
	d="
M294.924500,136.699356 
	C303.269379,138.191299 311.814423,139.620392 320.176636,135.955460 
	C323.034546,134.702896 326.058502,133.268021 328.187073,131.108597 
	C329.622986,129.651901 329.623566,126.780373 330.274780,124.178421 
	C335.565430,129.057632 335.313538,132.748016 329.408569,136.631577 
	C318.865570,143.565475 304.617950,143.714203 294.924500,136.699356 
z"/>
<path fill="#82D17C" opacity="1.000000" stroke="none" 
	d="
M503.965759,92.442261 
	C503.434814,88.206863 505.159698,86.589020 509.261597,86.749039 
	C515.706238,87.000450 522.168091,86.826210 528.622559,86.807289 
	C538.625427,86.777954 539.806030,85.628288 540.030640,75.384285 
	C544.669434,77.414764 543.722839,81.562836 542.989807,85.420006 
	C542.252136,89.301888 539.144165,90.010902 535.713806,90.003479 
	C527.882263,89.986519 520.047180,89.901344 512.221558,90.124542 
	C510.526855,90.172882 508.865814,91.401550 507.129456,92.461761 
	C506.121765,92.789192 505.173889,92.741425 503.965759,92.442261 
z"/>
<path fill="#C0E7BD" opacity="1.000000" stroke="none" 
	d="
M268.186310,127.518387 
	C267.839874,136.968491 267.626038,137.205048 258.542389,137.210495 
	C247.645782,137.217010 236.749161,137.163391 225.377228,137.127625 
	C223.950562,136.314957 222.999191,135.510468 221.963516,134.401245 
	C233.355545,134.068054 244.831985,134.062973 256.308167,134.002731 
	C263.623596,133.964340 264.599579,132.986176 265.017456,125.282410 
	C266.083435,125.651833 267.057495,126.438698 268.186310,127.518387 
z"/>
<path fill="#82D17C" opacity="1.000000" stroke="none" 
	d="
M412.009338,137.489792 
	C413.375214,137.157852 414.866302,137.202347 416.354034,137.150085 
	C421.898407,136.955353 423.753479,135.221603 423.845978,129.565140 
	C423.997528,120.298943 423.936890,111.029259 423.984680,101.277847 
	C425.253296,102.334038 426.502960,103.873436 427.848816,105.728271 
	C427.676697,114.809807 427.375000,123.575073 427.157654,132.342438 
	C427.077667,135.567673 427.266449,139.031982 423.405518,140.172729 
	C419.360321,141.367920 415.176880,141.992950 412.009338,137.489792 
z"/>
<path fill="#82D17C" opacity="1.000000" stroke="none" 
	d="
M179.263077,92.162170 
	C178.287048,88.242210 179.881287,86.655518 183.845703,86.766762 
	C190.501434,86.953545 197.166412,86.830574 203.827377,86.805695 
	C213.429901,86.769844 214.722794,85.481697 214.948700,75.442581 
	C215.406296,75.000755 215.828415,74.986923 216.567078,74.960632 
	C216.931488,79.337357 216.979355,83.726540 216.558014,88.643440 
	C214.308380,89.442024 212.530594,89.925323 210.747147,89.947159 
	C202.856247,90.043816 194.960632,89.894196 187.074249,90.109596 
	C185.366333,90.156250 183.689529,91.342079 181.998413,92.003204 
	C181.216995,92.072609 180.435593,92.142006 179.263077,92.162170 
z"/>
<path fill="#C0E7BD" opacity="1.000000" stroke="none" 
	d="
M438.079193,117.351692 
	C442.768250,116.919571 446.240906,114.597534 448.931213,110.571617 
	C452.027679,105.937828 455.465668,101.532234 460.009277,97.249924 
	C460.009277,99.266373 460.009277,101.282814 459.720825,103.933388 
	C457.178131,107.643089 454.763092,110.615639 452.710144,113.820145 
	C450.102478,117.890511 446.717743,120.383652 441.760040,120.410889 
	C440.590729,119.481171 439.421387,118.551453 438.079193,117.351692 
z"/>
<path fill="#82D17C" opacity="1.000000" stroke="none" 
	d="
M441.894653,120.719185 
	C446.717743,120.383652 450.102478,117.890511 452.710144,113.820145 
	C454.763092,110.615639 457.178131,107.643089 459.667938,104.347282 
	C459.980469,106.795021 460.057404,109.462982 460.056030,112.572479 
	C457.989288,115.433800 456.063293,117.908409 453.998749,120.261421 
	C450.273682,124.506996 446.416229,124.717171 441.894653,120.719185 
z"/>
<path fill="#82D17C" opacity="1.000000" stroke="none" 
	d="
M334.799377,84.756332 
	C334.630188,86.172943 334.258667,87.344666 333.483917,89.016541 
	C332.754486,90.064789 332.428284,90.612885 332.102081,91.160965 
	C332.102081,91.160965 332.164642,91.061798 332.216003,91.088852 
	C328.485901,93.966415 324.679810,96.239433 320.349976,91.199478 
	C320.121094,90.783356 320.108887,90.443390 320.516113,90.469162 
	C327.620026,90.759727 329.175934,85.437828 331.406158,80.848747 
	C332.469788,82.069649 333.533417,83.290550 334.799377,84.756332 
z"/>
<path fill="#C1E8BE" opacity="1.000000" stroke="none" 
	d="
M331.258606,80.554550 
	C329.175934,85.437828 327.620026,90.759727 320.610657,90.086685 
	C320.511963,88.928955 320.725922,88.179482 320.939880,87.430000 
	C323.103821,84.281967 325.267792,81.133934 327.681763,77.641953 
	C328.991547,78.285461 330.051300,79.272911 331.258606,80.554550 
z"/>
<path fill="#BDE6BA" opacity="1.000000" stroke="none" 
	d="
M320.559021,87.489502 
	C320.725922,88.179482 320.511963,88.928955 320.203430,90.060913 
	C320.108887,90.443390 320.121094,90.783356 320.143738,90.952347 
	C319.556335,90.936516 318.946259,90.751701 318.118744,90.331451 
	C317.698853,89.536598 317.496429,88.977180 317.210388,88.130035 
	C318.143921,87.744537 319.161041,87.646767 320.559021,87.489502 
z"/>
<path fill="#4EBF46" opacity="1.000000" stroke="none" 
	d="
M378.253052,89.808708 
	C383.332123,96.484047 383.081879,106.611397 377.684692,112.809364 
	C372.054260,119.275208 364.144257,120.574898 356.368958,115.614365 
	C355.856506,111.211678 354.912384,107.341286 355.520447,103.732414 
	C357.303009,93.153137 365.080566,88.612785 378.253052,89.808708 
z"/>
<path fill="#C1E8BE" opacity="1.000000" stroke="none" 
	d="
M352.557251,112.189346 
	C346.631073,106.829292 346.205536,96.031395 351.645752,89.061234 
	C357.359314,81.740868 366.184967,80.264267 373.382416,85.718979 
	C358.892273,83.945221 350.581207,94.400429 351.805664,105.754463 
	C352.037170,107.901474 352.305756,110.044487 352.557251,112.189346 
z"/>
<path fill="#84D27E" opacity="1.000000" stroke="none" 
	d="
M352.723206,112.470428 
	C352.305756,110.044487 352.037170,107.901474 351.805664,105.754463 
	C350.581207,94.400429 358.892273,83.945221 373.557861,86.024544 
	C375.354370,87.058266 376.698853,88.127167 378.148193,89.502380 
	C365.080566,88.612785 357.303009,93.153137 355.520447,103.732414 
	C354.912384,107.341286 355.856506,111.211678 356.098572,115.371750 
	C355.033569,114.771111 353.961395,113.761307 352.723206,112.470428 
z"/>
<path fill="#4CBE44" opacity="1.000000" stroke="none" 
	d="
M332.451050,91.086243 
	C332.428284,90.612885 332.754486,90.064789 333.288330,89.256104 
	C333.264038,89.667511 333.032043,90.339516 332.451050,91.086243 
z"/>
<path fill="#4EBF46" opacity="1.000000" stroke="none" 
	d="
M182.452972,92.105934 
	C183.689529,91.342079 185.366333,90.156250 187.074249,90.109596 
	C194.960632,89.894196 202.856247,90.043816 210.747147,89.947159 
	C212.530594,89.925323 214.308380,89.442024 216.494843,89.107513 
	C216.935089,101.037666 216.969284,113.031456 216.941681,125.487030 
	C216.464920,125.955536 216.049957,125.962265 215.323868,125.978615 
	C213.874939,124.729294 212.737137,123.470345 211.293777,122.113708 
	C208.936096,120.626656 206.883987,119.237282 204.493317,117.448502 
	C204.876526,116.008759 205.546738,114.927788 206.329239,113.935356 
	C209.265732,110.210991 208.731918,103.740219 205.021484,100.618309 
	C203.582886,99.195854 202.340866,98.039062 201.098862,96.882278 
	C199.815460,93.490471 197.226562,92.243629 193.756973,92.280418 
	C190.141144,92.318756 186.524078,92.237587 182.452972,92.105934 
z"/>
<path fill="#7DCF76" opacity="1.000000" stroke="none" 
	d="
M205.218094,100.883980 
	C208.731918,103.740219 209.265732,110.210991 206.329239,113.935356 
	C205.546738,114.927788 204.876526,116.008759 204.121674,117.395691 
	C196.091675,117.762962 188.094788,117.783623 179.560944,117.373108 
	C178.213806,113.056313 180.098053,111.912643 183.685776,112.034790 
	C188.172745,112.187531 192.670761,111.980721 197.161911,112.055405 
	C202.117645,112.137802 204.499466,109.630585 204.831299,104.850090 
	C204.923264,103.525490 205.087189,102.205879 205.218094,100.883980 
z"/>
<path fill="#BDE6BA" opacity="1.000000" stroke="none" 
	d="
M205.021484,100.618309 
	C205.087189,102.205879 204.923264,103.525490 204.831299,104.850090 
	C204.499466,109.630585 202.117645,112.137802 197.161911,112.055405 
	C192.670761,111.980721 188.172745,112.187531 183.685776,112.034790 
	C180.098053,111.912643 178.213806,113.056313 179.104080,117.349319 
	C174.756210,118.352562 175.059280,115.357735 174.935486,112.409668 
	C174.789841,108.941330 176.676697,108.215187 179.578354,108.276215 
	C183.215179,108.352699 186.855026,108.293015 190.493530,108.280350 
	C200.054794,108.247047 201.078384,107.217278 201.038666,97.320938 
	C202.340866,98.039062 203.582886,99.195854 205.021484,100.618309 
z"/>
<path fill="#C1E8BE" opacity="1.000000" stroke="none" 
	d="
M313.717194,85.833725 
	C312.220184,86.098007 310.566254,86.020668 308.911438,85.989700 
	C296.141510,85.750664 288.040253,94.721359 289.606720,107.340919 
	C289.687317,107.990341 289.643188,108.655251 289.514160,109.620689 
	C284.697693,105.313622 284.585480,96.093140 289.126434,89.810135 
	C294.600647,82.235832 306.074646,80.218155 313.717194,85.833725 
z"/>
</svg>